<?xml version="1.0" encoding="utf-8"?>
<!-- Generator: Adobe Illustrator 23.0.2, SVG Export Plug-In . SVG Version: 6.00 Build 0)  -->
<svg version="1.1" id="Laag_1" xmlns="http://www.w3.org/2000/svg" xmlns:xlink="http://www.w3.org/1999/xlink" x="0px" y="0px"
	 viewBox="0 0 1600 700" style="enable-background:new 0 0 1600 700;" xml:space="preserve">
<style type="text/css">
	.st0{fill:#00508D;}
	.st1{fill:#66839A;}
	.st2{fill:#00518D;}
	.st3{fill:#C3C3C4;}
	.st4{fill:#577B91;}
	.st5{fill:#065A94;}
	.st6{fill:#657D8E;}
	.st7{fill:#0B649B;}
	.st8{fill:#065C95;}
	.st9{fill:#085F98;}
	.st10{fill:#0B649C;}
	.st11{fill:#0E689F;}
	.st12{fill:#095F97;}
	.st13{fill:#0F6CA1;}
	.st14{fill:#116EA3;}
	.st15{fill:#0C659C;}
	.st16{fill:#035791;}
	.st17{fill:#647989;}
	.st18{fill:#286186;}
	.st19{fill:#54809C;}
	.st20{fill:#096098;}
	.st21{fill:#657988;}
	.st22{fill:#53778C;}
	.st23{fill:#497FA0;}
	.st24{fill:#1C5C8A;}
	.st25{fill:#1B5C8A;}
	.st26{fill:#0C669D;}
	.st27{fill:#0C659D;}
	.st28{fill:#0E699F;}
	.st29{fill:#286187;}
	.st30{fill:#2B6387;}
	.st31{fill:#106CA1;}
	.st32{fill:#1270A5;}
	.st33{fill:#0F6BA1;}
	.st34{fill:#0D679F;}
</style>
<g>
	<path class="st0" d="M1601,149c0,182.29-0.01,364.59,0.09,546.88c0,3.92-0.43,5.25-4.97,5.25
		c-530.22-0.14-1060.44-0.14-1590.66-0.03c-3.86,0-4.55-0.98-4.54-4.65C1.03,624.64,1,552.82,1,481c2.05-0.81,3.51,0.54,5.01,1.49
		c17.79,11.25,37.17,16.94,58.23,16.16c25.44-0.95,47.55-10.21,66.26-27.5c13.66-12.62,22.68-28.12,28.23-45.76
		c0.64-2.02,0.79-4.3,2.55-5.86c0.76-0.49,1.59-0.71,2.48-0.79c14.38,1.79,28.67,4.21,43.05,6.03c25.78,3.27,51.61,5.9,77.52,7.83
		c32.74,2.44,65.51,3.13,98.32,2.86c2.9,0.43,5.92-0.31,8.76,0.76c2.38,1.66,1.8,4.08,1.53,6.35
		c-4.26,34.85,19.69,66.32,54.34,72.17c34.99,5.91,69.03-19.15,74.43-53.69c1.34-8.56,1.07-16.89-0.87-25.25
		c-0.41-1.78-0.96-3.54-0.74-5.41c0.86-2.61-1.25-5.93,1.9-8c12.99-3.68,26.37-5.59,39.49-8.72
		c42.08-10.03,82.97-23.56,122.49-41.17c34.76-15.48,68.01-33.76,99.49-55.16c26.61-18.09,51.83-37.96,75.6-59.69
		c20.13-18.41,42.84-33.31,66.47-46.79c43.89-25.03,90.54-42.89,140.11-52.86c24.66-4.96,49.53-8.12,74.69-9.56
		c20.65-1.17,41.27-0.6,61.89-0.61c7.77-0.01,15.54,1.6,23.31-0.34c2.34-0.18,4.67-0.15,7-0.15c119.61,0,239.21-0.01,358.82,0.03
		C1594.63,147.39,1598.1,146.66,1601,149z"/>
	<path class="st1" d="M877.97,149.92c1.48-1.31,3.37-0.56,5.02-1.02c5.85-2.32,11.99-2.52,18.16-2.52
		c104.89-0.02,209.78-0.02,314.67,0.06c2.82,0,6.45-1.4,8.15,2.6c-4.69,1.81-9.57,1-14.34,0.78c-27.95-1.29-55.84-1.22-83.76,1.01
		c-43.64,3.49-86.04,12.56-127.16,27.46c-32.34,11.72-62.87,27.16-92,45.47c-21.35,13.42-40.52,29.51-59.41,46.14
		c-30.52,26.87-63.53,50.4-98.69,70.93c-43.59,25.44-89.48,45.55-137.6,60.63c-29.18,9.15-58.84,16.39-88.97,21.66
		c-0.63,0.38-1.3,0.51-2.01,0.25c-0.4-0.26-0.73-0.59-1.02-0.97c-5.02-10.52-12.2-19.17-21.96-25.65c-1.95-1.29-3.97-2.37-6.22-3.02
		c-11.03-5.5-22.6-8.71-35.03-8.4c-11.36,0.29-21.91,3.55-31.99,8.58c-14.69,6.79-24.24,18.21-29.27,33.35
		c-2.84,8.55-2.49,8.67-11.43,9.5c-26.77,0.51-53.51,0.03-80.26-1.5c-15.75-0.9-31.48-1.99-47.17-3.42
		c-18.48-1.68-36.94-3.65-55.3-6.5c-12.45-1.94-24.92-3.66-37.39-5.48c-2.45-1.25-1.97-3.33-1.75-5.51
		c0.49-4.84,1.88-9.6,1.28-14.53c-0.01-4.31-0.02-8.63,0.02-12.93c-0.01-17.81-5.26-34.2-14.47-49.17
		c-18.05-29.33-44.66-45.76-78.77-49.15c-22.19-2.21-42.96,3.43-62.02,15.12c-1.91,1.17-3.59,3.17-6.27,2.3c0-27,0-54,0-81
		c2.34-1.93,5.02-1.36,7.65-1.02c15.31,1.94,29.76,7.24,44.47,11.47c70,20.12,140.49,38.23,212.09,51.78
		c35.19,6.66,70.59,12.03,106.26,15.49c18.88,1.83,37.77,3.32,56.74,4.07c9.48,0.37,18.95,0.86,28.44,0.68
		c11.61,0,23.22-0.17,34.82,0.07c33.12-1.86,66.11-4.87,98.77-10.85c0.85-0.13,1.72-0.14,2.57-0.12c12.38,0.67,24.2-1.42,35.24-7.26
		c2.68-1.65,5.73-2.27,8.69-3.12c36.17-9.72,70.88-23.21,104.29-40.1c36.74-18.58,70.43-41.76,102.32-67.7
		c10.47-8.51,21.14-16.78,31.88-24.95C876.37,152.57,878.73,152.35,877.97,149.92z"/>
	<path class="st2" d="M877.97,149.92c0.79,0.2,1.58,0.4,2.92,0.73c-7.63,5.92-14.96,11.59-22.27,17.26
		c-22.18,17.2-43.73,35.26-67.36,50.54c-36.61,23.67-75.36,42.92-116.56,57.25c-12.39,4.31-24.81,8.48-37.63,11.37
		c-2.34-1.16-0.54-2.24,0.24-2.95c2.57-2.37,5.01-4.88,7.55-7.28c10.08-9.55,15.52-21.45,17.85-34.95c0.08-0.49,0.13-0.99,0.22-1.48
		c1.31-7.6,1.54-7.71,8.72-4.08c14.63,7.41,32.18,2.13,40.26-12.12c7.85-13.86,3.21-31.73-10.47-40.33
		c-13.59-8.54-31.37-4.82-40.76,8.52c-0.48,0.68-0.9,1.4-1.38,2.08c-2.79,3.94-4.09,3.98-7.07,0.11
		c-5.11-6.63-10.75-12.73-17.77-17.37c-26.01-17.21-59.48-13.76-81.6,8.19c-2.63,2.61-4.61,6.25-8.82,6.91
		c-4.49-3.86-6.8-9.35-10.43-13.89c-26.57-33.28-77.51-38.9-110.74-12.02c-20.35,16.46-30.56,37.77-30.54,63.92
		c0.02,34.07,24.57,66.08,57.56,75.34c2.17,0.61,5.16,0.1,6.07,3.24c-20.3,0.35-40.5-1.31-60.74-2.66
		c-18.07-1.21-36.05-3.12-53.98-5.44c-19.73-2.55-39.41-5.6-59-9.03c-45.95-8.04-91.44-18.27-136.65-29.74
		c-40.25-10.21-80.2-21.52-120.08-33.07c-8-2.31-16.07-4.19-24.48-3.98c0-51.67,0-103.33,0-155c15.03-1.99,30.17-2.43,45.27-3.33
		c31.44-1.87,62.92-2.19,94.39-1.72c44.97,0.67,89.77,3.91,134.42,9.45c60.66,7.53,119.8,21.94,178.75,37.65
		c61.22,16.31,123.44,27.81,186.41,35.07c31.1,3.59,62.27,6.04,93.57,7.17c47.66,1.72,95.21,0.5,142.65-4.4
		C876.96,149.85,877.47,149.91,877.97,149.92z"/>
	<path class="st3" d="M1223.96,149.04c-1.44-1.72-3.42-0.98-5.15-0.98c-105.18-0.04-210.37-0.05-315.55,0.01
		c-6.76,0-13.51,0.54-20.27,0.84c21.34-15.3,42.84-30.35,65.71-43.35c26.94-15.33,54.83-28.63,83.84-39.56
		c31.94-12.03,64.71-21.13,98.18-27.61c19.36-3.75,38.89-6.47,58.53-8.49c31.63-3.25,63.34-4.58,95.09-3.71
		c23.55,0.65,47.05,2.29,70.52,4.63c60.4,6.01,119.65,17.97,178.28,33.31c22.8,5.97,45.5,12.38,67.86,19.89c0,21.67,0,43.33,0,65
		c-1.49,0.07-2.99,0.19-4.48,0.19c-122.69,0.01-245.39,0.01-368.08,0C1226.95,149.2,1225.45,149.1,1223.96,149.04z"/>
	<path class="st4" d="M164,386c0,4.67,0,9.33,0,14c-1.18,6.49-1.13,13.24-3.94,19.41c-2.52,1.51-5.12,0.68-7.69,0.21
		c-3.07-0.57-6.1-1.39-9.25-1.43c-25.27-4.98-50.63-9.57-75.75-15.34c-2.43-0.56-4.9-0.95-7.27-1.74
		c-12.65-3.03-25.27-6.18-38.01-8.83c-5.63-1.68-11.29-3.26-16.95-4.85C3.53,386.97,2.09,386.31,1,385c0-24,0-48,0-72
		c1.39-2.67,3.95-4.04,6.38-5.42c31.88-18.08,64.75-20.36,98.06-4.71c29.97,14.08,49.01,37.53,56.41,70.03
		C162.83,377.2,163.36,381.62,164,386z"/>
	<path class="st5" d="M1,385c7,2,14,4,21,5.99c0.67,0.63,1.71,0.23,2.32,0.63c10.92,7.04,23.45,7.13,35.71,8.35
		c22,4.5,44.01,9.01,66.01,13.51c5.65,1.16,11.3,2.33,16.95,3.49c5.37,1.73,10.11,4.67,14.45,7.62c-0.02-2.19-0.14-4.46,3-5.04
		c0.19,0.15,0.37,0.29,0.56,0.44c-1.43,10.94-6.11,20.73-11.69,29.94c-16.34,26.93-40.46,43.26-71.27,48.71
		c-25.4,4.49-49.46-0.54-71.49-14.33C4.73,483.17,2.85,482.1,1,481C1,449,1,417,1,385z"/>
	<path class="st6" d="M164,386c-1.52-6.38-2.6-12.9-4.62-19.11c-11.48-35.3-35.13-58.62-70.7-68.96
		c-28.88-8.39-56.42-3.85-82.12,11.76C4.71,310.81,2.85,311.9,1,313c0-2.33,0-4.67,0-7c11.26-7.16,22.99-13.24,36.15-16.2
		c32.65-7.35,62.06-0.54,88.3,20.13c20.62,16.24,32.43,37.77,37.29,63.26C163.53,377.34,164.52,381.64,164,386z"/>
	<path class="st7" d="M1417.99,455.99c4.64,20.67,1.83,40.64-6.47,59.8c-10.77,24.85-28.84,42.83-53.64,53.71
		c-18.19,7.99-37.26,10.57-56.93,7.29c-23.02-3.84-42.73-14.15-58.77-31.16c-15.01-15.93-24.05-34.78-27.19-56.49
		c-2.88-19.95,0.2-38.97,8.52-57.23c0.27-0.59,0.34-1.27,0.5-1.92c0.37-0.4,0.82-0.65,1.35-0.77c8.21,1.07,16.38,2.35,24.71,0.72
		c27.39-5.38,45.79-25.46,48.63-53.23c0.08-0.83,0.14-1.65,0.38-2.46c0.19-0.51,0.5-0.93,0.93-1.26c5.48,0.05,10.85-1.12,16.37-1.08
		c27.31,0.21,50.93,9.58,70.97,28.02c2.08,1.91,3.66,2.06,6.14,0.91c19.39-9.03,37.2-1.3,43.55,18.78
		c4.43,14.03-4.4,30.47-19.02,35.39c-1.73-1.36-1.91-3.44-2.41-5.33c-3.93-14.85-10.75-28.22-20.55-40.06
		c-4.51-5.45-6.03-5.46-10.02,0.24c-7.06,10.06-8.08,20.67-1.81,31.38c6.33,10.82,16.12,15.37,28.56,14.31
		C1413.87,455.38,1416.03,454.24,1417.99,455.99z"/>
	<path class="st8" d="M1403,254c8.37-13.21,19.88-23.05,33.37-30.66c17.97-10.13,37.37-14.77,57.91-13.23
		c20.29,1.52,38.85,8.46,55.08,20.86c21.68,16.57,35.23,38.61,39.33,65.41c5.82,38-6.55,70.27-35.38,95.49
		c-14.99,13.11-33.02,20.82-53.08,23.17c-36.79,4.31-67.25-8.11-91.76-35.3c-8.48-9.4-14.62-20.52-18.46-32.74
		c0.16-0.8,0.64-1.37,1.32-1.79c11.37-3.85,20.66-10.47,27.37-20.54c14.26-21.39,9.08-50.56-11.69-65.79
		c-1.46-1.07-3.16-1.88-4.17-3.49C1402.57,254.89,1402.63,254.42,1403,254z"/>
	<path class="st5" d="M1023,235c0.1,1.42,0.84,1.46,2.02,1.12c24.59-7.23,48.54-4.76,71.99,4.89c0.35,0.42,0.46,0.9,0.35,1.43
		c-0.9,2.67-2.63,4.95-3.54,7.65c-3.57,10.52-0.22,21.95,8.5,28.49c8.88,6.67,20.51,6.8,29.78,0.48c1.82-1.24,3.14-3.61,5.91-3.07
		c10.02,13.4,15.67,28.52,18.04,45.01c2.28,15.83,0.8,31.25-4.3,46.36c-0.32,0.95-0.87,1.85,0.26,2.62
		c0.49,1.28-0.22,2.26-0.94,3.14c-2.79,3.43-4.37,7.31-4.86,11.7c-0.15,1.31,0.07,3.19-2.2,3.16c-2-2.39-2.11,0.74-2.34,1.11
		c-5.01,8.33-11.19,15.7-18.44,22.11c-16.19,14.31-34.83,23.1-56.47,25.92c-17.58,2.28-34.28-0.42-50.75-6.13
		c-0.89-0.42-1.43-1.19-2-1.94c-9.7-17.14-23.81-28.77-42.83-34.27c-0.89-0.4-1.71-0.89-2.18-1.8c-5.01-7.14-8.75-14.94-11.99-23
		c2.21-1.71,4.51-0.49,6.71-0.09c19.68,3.56,37.86-9.92,39.85-29.64c1.94-19.26-13.25-36.31-32.87-36.93
		c-3.21-0.1-6.26,0.69-9.37,1.26c-1.76,0.32-3.48,1.3-5.33,0.4c2.51-12.37,9.32-22.6,16.26-32.78c4.16-6.1,10.31-10.36,14.73-16.21
		c0.95-0.58,1.93-0.32,2.91-0.14c14.96,3.25,27.57-4.51,31-19.11C1021.31,235.83,1021.58,234.73,1023,235z"/>
	<path class="st5" d="M237,531.95c-0.16-44.18,36.22-82.04,83.17-80.96c42.18,0.97,79.89,35.84,78.82,83.3
		c-0.95,41.96-35.8,80.14-83.91,78.66C273.02,611.67,237.08,577.19,237,531.95z"/>
	<path class="st9" d="M969,393c0.82,0.02,1.57,0.2,2.01,1c11.44,15.72,26.07,27.44,44,35c0.81,0.43,0.98,1.18,1,2.01
		c9.83,23.39,7.97,45.82-6.86,66.42c-10.68,14.83-25.28,23.94-43.79,26.69c-18.24,2.71-34.74-1.35-49.26-12.22
		c-14.34-10.72-23.35-25.05-26.16-43.11c-2.83-18.18,1.19-34.71,11.95-49.34c10.74-14.61,25.18-23.58,43.38-26.6
		C953.3,391.52,961.09,392.52,969,393z"/>
	<path class="st9" d="M521,429.97c1.21,7.16,3.2,14.15,3.06,21.56c-0.63,32.69-25.85,60.08-56.77,64.67
		c-32.45,4.82-62.89-15.16-72.72-44.41c-3.27-9.73-5.13-19.91-2.69-30.32c0.33-1.43,0.1-2.98,0.13-4.48c0.25-0.97,0.9-1.55,1.8-1.91
		c7.06-1.01,14.13-0.66,21.2-0.23c8.23,3.75,15.91,0.65,23.64-1.91c5.27-1.09,10.58-1.62,15.96-1.38c5.14,0.12,10.3,0.04,15.36,1.27
		c2.35,0.57,4.65,0.19,6.8-0.85c3.61-1.75,7.42-2.89,11.25-4.03c2.79-0.89,5.62-1.49,8.57-1.35c5.3,0.07,10.62-0.28,15.9,0.07
		C515.5,426.86,519.26,426.09,521,429.97z"/>
	<path class="st9" d="M769,385c2.05,0.37,3.42-0.99,4.94-1.97c30.89-19.87,70.52-0.67,76.21,33.31
		c4.59,27.42-12.83,52.7-40.47,57.72c-27.38,4.97-52.57-12.78-57.95-40.31c-0.62-3.18,1.37-7.46-2.73-9.76
		c-0.29-1.39,0.8-1.69,1.69-2.15c14.39-5.54,21.41-18.61,18.19-33.95C768.68,386.92,768.44,385.94,769,385z"/>
	<path class="st10" d="M1225,430c-0.33,0-0.66,0-1,0c-7.42-3.27-15.36-5.61-21.01-11.98c-0.65-2.2,1.15-3.32,2.17-4.71
		c15.13-20.68,6.73-46.27-17.72-53.86c-1.43-0.44-2.92-0.72-4.05-1.81c-0.14-0.21-0.27-0.43-0.4-0.64
		c3.71-11.83,9.42-22.35,19.49-30.06c0.63-0.48,1.01-1.28,1.5-1.93c0.32-0.41,0.72-0.7,1.2-0.88c10.05-0.6,19.2-3.54,26.77-10.48
		c0.9-0.76,1.52-2.04,3.04-1.64c4.95,2.48,10.35,0.83,15.56,1.73c28.91,4.99,50.05,31.09,49.44,59.26c0,0.34,0,0.67,0,1.01
		c-5.24,2.67-11.17,2.93-16.64,4.95c-23.92,8.79-42.22,24.16-55.02,46.14C1227.34,426.81,1226.59,428.68,1225,430z"/>
	<path class="st9" d="M1391,346c-0.33,0.33-0.67,0.67-1,1c-8.41,1.05-16.75,1.72-25.1-0.82c-19.35-5.88-31.59-18.56-35.77-38.26
		c-4.17-19.66,2.72-35.84,17.48-48.99c0.95-0.85,2.45-1.26,2.39-2.94c0.98-0.56,1.99-0.32,3-0.13c12.74,4.06,24.23,1.25,34.83-6.37
		c0.98-0.66,1.69-1.92,3.18-1.5c3.26,4.32,8.82,3.64,12.99,5.99c0,0.33,0,0.67,0,1c-0.85,3.49-3.46,5.99-5.07,9.07
		C1384.2,290.43,1381.57,317.7,1391,346z"/>
	<path class="st11" d="M1205.01,324.99c-0.34,0-0.68,0.01-1.02,0.01c-18.65-1.37-34.58-16.71-35.97-34.64
		c-1.51-19.44,10.7-36.59,29.38-41.29c16.83-4.23,34.31,3.64,43.38,19.54c7.51,13.16,4.94,32.41-5.78,43.38
		c-0.67,0.67-1.34,1.33-2,2C1223.13,316.29,1214.09,320.7,1205.01,324.99z"/>
	<path class="st10" d="M1390.01,248c-0.67,0.67-1.34,1.33-2,2c-13.16-2.05-25.45,0.53-37,7c-0.67-0.33-1.34-0.66-2.01-1
		c-15.96-6.48-25.63-21.64-23.86-39.2c1.61-15.97,11.96-29.6,30.43-33.9c16.14-3.75,32.93,3.94,42.1,19.51
		c7.59,12.88,4.99,33.07-5.69,44.08C1391.41,247.08,1390.67,247.5,1390.01,248z"/>
	<path class="st9" d="M917.98,309c-18.83,0-34-15.3-33.98-34.27c0.02-18.47,15.41-33.74,34.01-33.73
		c18.79,0,34.01,15.34,33.99,34.27C951.98,293.73,936.58,309,917.98,309z"/>
	<path class="st9" d="M883,309.5c0,17.55-14.1,31.54-31.75,31.5c-17.23-0.04-31.25-14.16-31.25-31.5c0-17.55,14.1-31.54,31.75-31.5
		C868.98,278.04,883,292.16,883,309.5z"/>
	<path class="st12" d="M956,305c24.98-9.86,49.64,7.32,49,34.13c-0.48,20.04-21.08,36.3-40.68,32.13c-2.42-0.52-4.87-0.84-7.31-1.26
		c-0.01-0.33-0.01-0.66-0.01-0.99c-2.31-1.44-3.05-3.85-3.72-6.25c-4.8-17.11-5.07-34.31-1.07-51.61c0.46-1.99,1.26-3.76,2.79-5.15
		C955.33,305.66,955.66,305.33,956,305z"/>
	<path class="st10" d="M613,451.03c-0.01,16.55-13.55,30.01-30.16,29.97c-16.52-0.04-29.92-13.64-29.84-30.28
		c0.08-16.26,13.6-29.69,29.91-29.72C599.49,420.98,613.01,434.47,613,451.03z"/>
	<path class="st9" d="M1144,388c1.87-1.76,0.63-4.11,1.16-6.13c1.2-4.6,3.66-8.43,6.84-11.87c7.97-9.97,18.61-13.55,31-13
		c0,0,0.02,0.01,0.02,0.01c1.34,1.88,0.5,3.9,0.19,5.79c-3.29,19.87,3.02,36.65,16.29,51.24c1.05,1.16,2.86,1.9,2.51,3.98
		c-18.3,17.74-50.34,8.01-56.94-17.21C1143.95,396.55,1144.02,392.3,1144,388z"/>
	<path class="st10" d="M769,385c0.33,0.67,0.66,1.34,1,2.01c-7.19,7.19-13.47,14.92-16,25.12c-0.9,3.64-0.71,7.6-2.99,10.87
		c-0.82,0.02-1.57,0.2-2.01,1c-18.94,4.54-34.65-7.74-37.62-24c-1.98-10.87,3.38-23.88,13.63-30.39
		C741.2,359.32,763.07,366.97,769,385z"/>
	<path class="st9" d="M1224.36,221c-14.7-0.02-26.47-11.98-26.36-26.77c0.12-14.74,11.95-26.28,26.89-26.23
		c14.38,0.05,26.11,11.97,26.11,26.52C1250.99,209.29,1239.19,221.02,1224.36,221z"/>
	<path class="st10" d="M1023,235c-0.8,0.44-0.98,1.18-1,2c-0.93,1.81-2.74,2.26-4.43,2.96c-10.36,4.27-20.16,9.48-28.56,17.03
		c-0.67-0.33-1.34-0.66-2.01-0.99c-9.78-3.34-16.87-13.11-16.99-23.42c-0.14-11.58,6.64-21.6,16.28-25.62
		C1003.88,199.62,1025.05,213.13,1023,235z"/>
	<path class="st13" d="M1202,418.02c-18.05-16.69-24.71-36.92-18.99-61.01c16.2,3.18,26.89,12.25,30.35,28.77
		c2.35,11.19-1.26,20.87-8.2,29.55c-0.72,0.9-1.45,1.79-2.18,2.69c0,0-0.49-0.01-0.49-0.01L1202,418.02z"/>
	<path class="st14" d="M1417.99,455.99c-8.45,1.43-16.65,1.78-24.58-2.74c-17.45-9.94-20.77-33.49-6.62-47.63
		c2.4-2.4,3.91-2.76,6.34-0.09c12.9,14.21,21.17,30.69,24.9,49.48C1418,455.34,1418,455.67,1417.99,455.99z"/>
	<path class="st15" d="M1138,276c-5.7,5.06-11.9,9.03-19.91,9c-10.99-0.04-19.38-4.85-24.22-14.6c-4.91-9.88-4.04-19.61,3.14-28.4
		c1.57-1.24,3.11-0.71,4.63,0.09c13.99,7.32,25.68,17.39,35.39,29.78c0.71,0.9,1.47,1.83,0.98,3.13
		C1138,275.33,1138,275.67,1138,276z"/>
	<path class="st9" d="M1138,275c-9.9-13.07-21.88-23.76-36.32-31.62c-1.47-0.8-2.93-1.55-4.68-1.38c0-0.33,0-0.66,0-0.99
		c5.83-5.2,12.19-9.18,20.39-9.01c10.77,0.22,19.05,4.99,23.71,14.58C1145.87,256.4,1145.23,266.2,1138,275z"/>
	<path class="st16" d="M955,306c-5.73,21.21-5.89,42.23,2,63.01c-20.16-6.69-28.37-32.47-16.22-51.18
		C944.27,312.45,948.56,307.9,955,306z"/>
	<path class="st17" d="M393.04,436.08c-0.34,0.3-0.69,0.6-1.03,0.9c-2.97-0.07-5.94-0.13-8.91-0.2c7.59,0.45,8.67-4.65,10.61-10.61
		c4.89-15.05,14.58-26.5,29.3-33.17c0.5,1.41-0.44,2.23-1.36,2.91c-13.43,9.81-23.28,22.16-27.48,38.55
		C394.01,435.1,393.44,435.55,393.04,436.08z"/>
	<path class="st18" d="M521,429.97c-8.12-3.43-16.68-1.39-25.02-2.02c-0.08-1.01,0.54-1.67,1.37-1.79
		c7.54-1.14,14.91-3.54,22.66-3.1c0.68,0.03,1.35,0.05,2.03,0.08C519.43,425.07,523.45,428.01,521,429.97z"/>
	<path class="st19" d="M159.99,419c1.33-6.33,2.67-12.66,4-19c0.33,5.14-0.72,10.15-1.64,15.15c-0.32,1.75-0.27,3.24,0.63,4.73
		c-0.66,0.04-1.32,0.08-1.98,0.12c0,0,0.03-0.05,0.03-0.05C160.7,419.62,160.07,419.62,159.99,419z"/>
	<path class="st20" d="M455.95,308.91c-10.8-3.26-21.41-6.93-30.63-13.74c-18.63-13.77-30.08-31.77-33.41-54.93
		c-3.05-21.28,1.7-40.64,14.05-57.95c13.44-18.84,31.69-30.25,54.9-33.35c27.69-3.69,50.99,5.04,70.31,24.81
		c5.22,5.34,9.65,11.39,12.83,18.24c0.38,0.4,0.58,0.88,0.61,1.43c-0.15,2.09-1.49,3.65-2.44,5.38
		c-10.65,19.49-11.7,39.43-2.81,59.83c1.2,2.74,2.56,5.4,4.55,7.68c0.87,1.37-0.21,2.38-0.65,3.51
		c-11.68,20.04-28.81,32.92-51.21,38.85C480.02,309.3,467.99,309.11,455.95,308.91z"/>
	<path class="st9" d="M544,193.01c0-0.34,0-0.67,0-1.01c6.74-5.13,11.71-12.15,19.04-16.77c25.51-16.08,60.12-12.76,80.83,8.15
		c3.27,3.3,7,6.22,9.31,10.37c1.79,3.22,2.79,3.77,5.09,0c10.07-16.48,29.67-20.73,45.32-9.92c10.41,7.19,14.85,17.64,13.13,29.86
		c-1.88,13.28-9.74,22.36-22.91,26.16c-10.09,2.91-19.34,0.5-28.27-5.74c-1.71,8.2-2.73,16.02-5.77,23.33
		c-4.66,11.24-12.55,19.87-21.71,27.52c-0.65,0.54-2.15,0.71-0.98,2.1c-2.69,0.98-5.37,1.97-8.06,2.95
		c-11.63,4.4-23.76,6.57-36.06,7.93c-0.68-0.03-1.36-0.06-2.04-0.09C569.3,297.24,554.46,285.14,542,269c0.67-0.67,1.33-1.34,2-2
		c-1.33-1.87-0.15-3.52,0.55-5.14c9.17-21.08,9.53-42.27,0.86-63.58C544.72,196.57,544.36,194.8,544,193.01z"/>
	<path class="st21" d="M202,351.55c0.16-30.92,24.61-55.84,56.2-55.5c30.23,0.33,55.2,24.49,54.74,56.41
		c-0.42,29.99-24.46,54.76-56.65,54.58C226.75,406.86,202,381.7,202,351.55z"/>
	<path class="st22" d="M520,423.05c-6.73,2.39-13.84,2.78-20.81,3.92c-1.13,0.19-2.36-0.06-3.22,0.97c-2.66,0.35-5.31,0.7-7.96,1.05
		c-10.74,3.54-21.95,3.2-33.03,3.95c-5.7-0.46-11.29,0.89-16.96,1.09c-7.22,2-14.54,2.97-22.03,1.93c-7.65,0.03-15.3,0.06-22.95,0.1
		c1.52-11.02,6.74-20.28,13.93-28.48c4.78-5.45,10.23-10.25,16.04-14.61c22.99-12.16,45.99-12.16,68.98,0
		c10.99,6.62,19.84,15.28,25.64,26.84c0.61,1.21,1.36,2.26,2.38,3.13L520,423.05z"/>
	<path class="st21" d="M518,352.3c-0.02,17.34-14.75,31.79-32.3,31.7c-17.43-0.09-31.72-14.65-31.7-32.3
		c0.02-17.34,14.74-31.79,32.3-31.7C503.73,320.09,518.02,334.65,518,352.3z"/>
	<path class="st21" d="M637.43,298c14.56,0.11,26.65,12.52,26.57,27.31c-0.08,14.81-12.59,26.88-27.68,26.69
		c-14.48-0.18-26.46-12.72-26.32-27.56C610.14,309.92,622.62,297.89,637.43,298z"/>
	<path class="st2" d="M542,269c1.27,0.02,2.08,0.69,2.86,1.67c11.62,14.77,26.21,24.5,45.28,26.6c0.28,0.03,0.52,0.38,0.77,0.58
		c-32.65,6.35-65.65,9.5-98.85,10.83c2.62-3.06,6.65-3.09,10-4.45c17.02-6.89,29.94-18.42,39.63-33.8
		C541.93,270.05,541.9,269.49,542,269z"/>
	<path class="st17" d="M520.01,422.97c-1.8,0.04-2.59-1.14-3.3-2.56c-5.41-10.82-13.54-19.17-23.48-25.88
		c-0.52-0.35-0.83-1.01-1.23-1.53C505.46,399.12,514.58,409.32,520.01,422.97z"/>
	<path class="st23" d="M592.95,297.95c12.02-2.64,24.04-5.29,36.06-7.93c-9.36,5.89-19.8,7.61-30.6,7.97
		C596.59,298.05,594.77,297.97,592.95,297.95z"/>
	<path class="st5" d="M295,240c-1.73,0.13-3.13,0.99-4.48,2c-18.04,13.57-38.06,19.02-60.67,16.14
		c-32.46-4.13-60.95-29.82-67.82-62.14c-0.07-0.32-0.03-0.66-0.04-1c0.18-0.18,0.35-0.37,0.52-0.56c4.17-1.71,8.73-1.96,12.98-3.47
		c30.6-10.86,41.91-46.79,22.96-73.21c-1.26-1.75-2.73-3.36-3.69-5.32c-0.19-0.53-0.11-1.01,0.22-1.45
		c9.02-5.35,18.29-9.98,28.7-12.15c24.11-5.02,46.11-0.15,65.84,14.3c16.77,12.28,26.88,29.13,31.04,49.37
		c1.7,8.24,2.47,16.71,0.67,25.15c-0.34,1.6-0.4,3.05,1.76,3.33c0.24,1.46-0.89,1.69-1.85,2.07c-19.88,2.79-32.93,24.47-26.04,43.98
		C295.32,238.04,295.57,239.04,295,240z"/>
	<path class="st10" d="M194.99,111.01c0,0.33,0.01,0.66,0.01,0.99c-2.77,3.83-6.97,6.1-10.2,9.48
		c-18.04,18.87-25.9,41.09-22.7,67.11c0.26,2.11,0.84,4.28-0.11,6.4c0,0,0,0.02,0,0.02c-20.53-0.1-36.58-8.58-45.78-27.04
		c-8.66-17.38-7.44-35.08,4.31-50.8c17.88-23.93,48.9-26.9,72.48-7.65C193.65,110.04,194.33,110.51,194.99,111.01z"/>
	<path class="st10" d="M321,192c0.82-0.02,1.57-0.2,2.01-1c20.56-1.34,34.44,11.82,38.02,26.96c4.37,18.5-6.94,37.06-25.32,42
		c-15.28,4.1-34.25-3.94-40.7-19.96c-0.33-0.67-0.66-1.34-0.99-2c10.08-9.65,17.75-20.87,22.56-34.06
		C318.02,199.96,317.67,195.28,321,192z"/>
	<path class="st24" d="M60.03,399.98c-0.67,0.01-1.34-0.05-2,0.04c-13.19,1.68-25.22-1.25-36.03-9.02
		c10.81,2.43,21.65,4.76,32.41,7.39C56.27,398.83,58.49,398.33,60.03,399.98z"/>
	<path class="st25" d="M159.99,419c0.35,0.32,0.7,0.63,1.05,0.95c-0.16,0.03-0.44,0.02-0.47,0.11c-3.15,7.96-7.49,2.96-11.41,0.95
		c-2.17-1.11-4.11-2.67-6.16-4.03C148.8,416.52,154.19,419.48,159.99,419z"/>
	<path class="st14" d="M1225,430c2.81-8.91,8.56-16.1,14.55-22.86c15.03-16.96,33.7-28.1,56-32.82c1.44-0.31,2.96-0.22,4.45-0.32
		c-0.02,26.95-21.32,52.2-47.95,56.99C1242.93,432.63,1233.94,432.49,1225,430z"/>
	<path class="st26" d="M1391,346c-2.55-0.27-2.37-2.58-2.82-4.14c-3.11-10.85-4.81-21.96-4.12-33.24
		c1.11-17.91,5.81-34.8,15.6-50.07c0.91-1.42,1.75-2.81,3.33-3.56c27.72,14.89,33.65,54.76,11.47,77.05
		C1407.83,338.72,1400.59,344.32,1391,346z"/>
	<path class="st15" d="M1091,357.79c-0.04,14.64-11.97,26.26-26.91,26.21c-14.58-0.05-26.15-12.05-26.09-27.04
		c0.07-14.33,12.03-25.98,26.66-25.96C1079.36,331.02,1091.04,342.89,1091,357.79z"/>
	<path class="st27" d="M1015,429c-5.45,0.49-9.42-3.12-13.58-5.51c-11.54-6.64-21.24-15.59-29.45-26.09
		c-0.73-0.94-1.97-1.89-0.97-3.4c9.59,1.6,17.99,6.09,25.28,12.09C1003.93,412.38,1010.95,419.58,1015,429z"/>
	<path class="st28" d="M989,257c2.63-6.38,9.07-8.23,14.19-11.43c5.83-3.64,12.17-6.52,18.8-8.57
		C1019.58,251.97,1004.54,261.09,989,257z"/>
	<path class="st29" d="M454.98,432.96c3.12-2.08,6.72-0.78,10.09-1.34c7.58-1.26,15.29-1.79,22.95-2.62
		c-4.39,1.72-8.78,3.44-13.16,5.16c-1.23,0.48-2.37,0.84-3.79,0.4C465.82,432.93,460.4,432.86,454.98,432.96z"/>
	<path class="st30" d="M415.99,435.98c1-1.22,2.41-1.05,3.69-0.95c6.16,0.5,12.21-0.86,18.33-0.98
		C430.88,437,423.78,440.42,415.99,435.98z"/>
	<path class="st31" d="M751.01,422.99c0.81-13.79,6.05-25.49,16.34-34.83c0.77-0.7,1.61-1.13,2.65-1.16
		C774.06,402.48,765.79,418.17,751.01,422.99z"/>
	<path class="st32" d="M1205.01,324.99c8.36-6.13,17.29-10.83,27.99-10.99C1225.33,321.89,1215.83,325.13,1205.01,324.99z"/>
	<path class="st33" d="M1351,257c2.3-4.07,6.68-4.93,10.5-6.09c8.67-2.62,17.51-5.23,26.49-0.91
		C1376.91,258.9,1364.59,261.28,1351,257z"/>
	<path class="st28" d="M544,193.01c4.77,7.03,6.55,15.09,8,23.27c3.16,17.83-0.65,34.55-8,50.72c-2.59-0.02-3.09-2.2-3.95-3.92
		c-11.67-23.14-10.73-45.76,2.82-67.86C543.3,194.52,543.63,193.75,544,193.01z"/>
	<path class="st34" d="M664.7,232.45c-8.92-5.38-14.05-24.47-8.46-32.73C662.01,207.47,665.61,221.17,664.7,232.45z"/>
	<path class="st28" d="M162,194.99c-3.68-14.37-2.54-28.59,2.08-42.46c5.31-15.96,14.72-29.2,28.25-39.37
		c0.83-0.62,1.63-1.13,2.67-1.16c11.06,10.88,15.5,24.45,13.71,39.41c-1.94,16.28-9.97,29.38-24.95,37.36
		C176.97,192.38,169.77,194.74,162,194.99z"/>
	<path class="st28" d="M321,192c-3.51,16.66-10.6,31.44-22.94,43.43c-1.16,1.13-2.14,2.59-4.05,2.56
		c-6.74-19.48,4.22-38.01,18.89-43.96C315.5,192.98,318.07,191.77,321,192z"/>
</g>
</svg>
